<?xml version="1.0" encoding="UTF-8" standalone="no"?>
<!-- Created with Inkscape (http://www.inkscape.org/) -->

<svg
   width="173.8551mm"
   height="117.22134mm"
   viewBox="0 0 173.8551 117.22134"
   version="1.1"
   id="svg198"
   inkscape:version="1.1.1 (3bf5ae0d25, 2021-09-20, custom)"
   sodipodi:docname="clip4.svg"
   xmlns:inkscape="http://www.inkscape.org/namespaces/inkscape"
   xmlns:sodipodi="http://sodipodi.sourceforge.net/DTD/sodipodi-0.dtd"
   xmlns="http://www.w3.org/2000/svg"
   xmlns:svg="http://www.w3.org/2000/svg">
  <sodipodi:namedview
     id="namedview200"
     pagecolor="#505050"
     bordercolor="#eeeeee"
     borderopacity="1"
     inkscape:pageshadow="0"
     inkscape:pageopacity="0"
     inkscape:pagecheckerboard="0"
     inkscape:document-units="mm"
     showgrid="false"
     inkscape:zoom="0.35355596"
     inkscape:cx="503.45637"
     inkscape:cy="4.2426098"
     inkscape:window-width="512"
     inkscape:window-height="850"
     inkscape:window-x="1074"
     inkscape:window-y="12"
     inkscape:window-maximized="1"
     inkscape:current-layer="layer1" />
  <defs
     id="defs195" />
  <g
     inkscape:label="Layer 1"
     inkscape:groupmode="layer"
     id="layer1"
     transform="translate(35.654358,-115.24355)">
    <path
       d="m -9.1954668,115.54183 c -0.2822222,0.17638 -1.7991672,0.49388 -3.3513892,0.67027 -3.668889,0.49389 -3.951111,0.56445 -4.233333,0.84667 -0.141112,0.14111 -0.881945,0.24694 -1.622778,0.24694 -0.881945,0 -1.5875,0.24695 -2.046112,0.70556 -0.388055,0.38806 -0.705555,0.635 -0.705555,0.52917 0,-0.0706 -0.423334,0 -0.917222,0.17639 -0.529167,0.21166 -1.093612,0.24694 -1.340556,0.0705 -0.635,-0.49389 -5.856112,-0.52917 -5.856112,-0.0705 0,0.24694 -0.423333,0.3175 -1.128889,0.21166 -0.635,-0.10583 -1.305277,-0.0353 -1.516944,0.10584 -0.176389,0.17638 -1.058333,0.38805 -1.940278,0.49388 -0.881944,0.10584 -1.622778,0.21167 -1.658056,0.21167 -0.388055,0.10583 0.07056,1.12889 0.776112,1.79917 0.493888,0.45861 0.881944,1.16416 0.881944,1.55222 0,0.42333 0.3175,1.27 0.705556,1.905 0.670277,1.12889 0.811389,2.57528 0.246944,3.10445 -0.458611,0.49388 -0.246944,2.64583 0.423333,4.30388 0.388056,0.91723 0.776112,2.11667 0.917223,2.71639 0.141111,0.56445 0.493889,1.34056 0.776111,1.69334 0.3175,0.3175 0.493889,0.70555 0.352778,0.81139 -0.282223,0.3175 0.881944,3.45722 1.446389,3.88055 0.3175,0.21167 0.458611,0.635 0.3175,0.91722 -0.105834,0.3175 -0.03528,1.16417 0.105833,1.905 0.246944,0.98778 0.211667,1.48167 -0.105833,1.72862 -0.246945,0.17638 -0.458611,1.05833 -0.493889,1.94027 -0.03528,1.55223 -0.211667,3.42195 -0.599723,6.70278 -0.105833,0.91722 0.07056,2.54 0.388056,3.84528 0.493889,1.94028 0.493889,2.32833 0.07056,2.64583 -1.058334,0.81139 -1.411112,1.55223 -1.093612,2.2225 0.176389,0.35278 0.564445,1.12889 0.881945,1.76389 0.3175,0.635 0.388056,1.16417 0.211667,1.23472 -0.211667,0.0706 -0.141111,0.52917 0.176389,1.12889 0.282222,0.56445 0.423333,1.19945 0.3175,1.44639 -0.07056,0.28222 0.176388,0.635 0.564444,0.84667 0.388056,0.21167 0.635,0.59972 0.529167,0.88194 -0.105834,0.28223 0.105833,0.70556 0.458611,0.9525 1.023055,0.74084 1.27,1.34056 0.776111,1.94028 -0.211667,0.28222 -0.3175,0.59972 -0.211667,0.74083 0.141111,0.10584 0.07056,0.42334 -0.105833,0.635 -0.529167,0.635 -0.740833,6.20889 -0.282222,6.80862 0.423333,0.49389 0.599722,1.5875 0.776111,4.40972 0.03528,0.91722 0.282222,1.86972 0.493889,2.08139 0.246944,0.24694 0.423333,0.70555 0.423333,1.05833 0,0.52917 0.388056,1.5875 1.516945,4.05695 0.176389,0.38805 0.211666,0.91722 0.105833,1.12888 -0.141111,0.21167 -0.141111,0.59973 0.03528,0.81139 0.423333,0.70556 0.458611,2.78695 0.03528,4.445 -0.282223,1.05834 -0.282223,1.76389 0,2.32834 0.282222,0.635 0.246944,0.9525 -0.141111,1.34055 -0.423334,0.38806 -0.423334,0.74084 -0.141112,1.48167 0.529167,1.41111 0.458612,1.62278 -0.705555,2.01083 -1.234722,0.45861 -1.199445,0.3175 -0.564445,1.5875 0.282223,0.52917 0.458611,1.09361 0.388056,1.23473 -0.105833,0.14111 0.07055,0.42333 0.352778,0.67027 0.282222,0.24695 0.529166,0.70556 0.529166,1.02306 0,0.67028 0.458612,1.76389 1.869723,4.55083 0.529166,1.05834 0.9525,2.25778 0.9525,2.68111 0,0.45862 0.211666,1.27 0.493889,1.83445 0.3175,0.56444 0.458611,1.69333 0.423333,2.57528 -0.07056,0.84666 0,1.97555 0.141111,2.54 0.246945,0.81139 0.141111,1.05833 -0.529166,1.51694 -2.010834,1.30528 -1.128889,2.61056 2.8575,4.16278 1.940278,0.74083 2.54,0.81139 8.4313891,0.74083 3.4925002,-0.0353 7.5494449,-0.24694 8.9958339,-0.42333 6.2441671,-0.84667 23.424446,-1.51695 35.983336,-1.44639 15.733889,0.10583 15.522223,0.14111 17.885834,-0.67028 2.54,-0.84666 4.550834,-0.9525 4.938889,-0.24694 0.388056,0.67028 4.621389,2.78694 5.044723,2.50472 0.176389,-0.10583 0.352778,-0.0706 0.352778,0.10583 0,0.98778 4.233333,0.67028 9.348611,-0.67027 1.552223,-0.42334 12.87639,-0.45862 20.637502,-0.0706 2.822222,0.14111 6.138333,0.21167 7.408333,0.21167 6.0325,-0.10584 7.72584,-0.10584 14.46389,0.0353 3.98639,0.0706 8.92528,-0.0353 10.97139,-0.24694 3.24556,-0.3175 3.95111,-0.28222 5.715,0.28222 1.905,0.59972 2.04611,0.59972 2.68111,0.0353 0.84667,-0.77611 1.51695,-3.52778 1.23473,-5.15056 -0.10584,-0.67027 -0.24695,-3.31611 -0.28223,-5.82083 -0.0353,-4.37444 -0.0705,-4.65667 -0.98777,-5.99722 -1.02306,-1.48167 -1.23473,-2.92806 -0.59973,-4.09222 0.21167,-0.38806 0.38806,-1.86973 0.38806,-3.28084 0,-2.39889 0.10583,-2.71639 1.19944,-4.09222 0.67028,-0.84667 1.19945,-1.76389 1.23473,-2.08139 0,-0.3175 0.10583,-0.88194 0.17638,-1.27 0.35278,-1.5875 0.49389,-4.86833 0.21167,-5.25639 -0.52917,-0.67028 -0.70555,-2.29305 -0.38805,-3.70417 0.88194,-3.91583 1.16416,-8.18444 0.70555,-10.19527 -0.52917,-2.15195 -0.70555,-3.13973 -0.9525,-6.06778 -0.14111,-1.27 -0.35278,-2.46945 -0.45861,-2.64584 -0.14111,-0.21166 -0.28222,-1.34055 -0.35278,-2.54 -0.0705,-1.76388 0.10584,-2.64583 0.88195,-4.33916 0.49389,-1.16417 0.84666,-2.43417 0.74083,-2.82223 -0.10583,-0.38805 -0.0706,-0.77611 0.0706,-0.84666 0.35277,-0.21167 0.0705,-9.31334 -0.3175,-10.61861 -0.17639,-0.59973 -0.42334,-2.04611 -0.52917,-3.24556 -0.17639,-1.65805 -0.45861,-2.43417 -1.16417,-3.175 -0.77611,-0.84667 -0.88194,-1.27 -0.84666,-3.28083 0.0353,-1.27 -0.10584,-2.54 -0.28223,-2.82223 -0.21166,-0.35277 -0.0705,-0.77611 0.49389,-1.41111 1.05834,-1.12889 1.94028,-4.05694 1.76389,-5.64444 -0.10583,-0.67028 -0.21167,-1.86972 -0.28222,-2.64583 -0.0706,-0.74084 -0.28222,-1.44639 -0.52917,-1.51695 -0.21166,-0.0706 -0.38805,-0.35278 -0.38805,-0.635 0,-0.28222 -0.24695,-0.59972 -0.52917,-0.74083 -0.3175,-0.10584 -0.77611,-0.635 -1.05833,-1.16417 -0.81139,-1.5875 -1.55223,-2.15194 -2.50473,-1.905 -0.49388,0.14111 -1.19944,0 -1.65805,-0.28222 -0.42333,-0.28222 -1.51695,-0.70556 -2.43417,-0.91722 -0.88194,-0.24695 -2.08139,-0.59973 -2.64583,-0.81139 -1.62278,-0.67028 -2.01084,-0.70556 -11.04195,-0.81139 -4.7625,-0.0353 -9.34861,-0.24695 -10.23055,-0.45861 -2.08139,-0.52917 -12.805839,-0.49389 -13.123339,0 -0.141111,0.24694 -0.388056,0.24694 -0.705556,0.0353 -0.670278,-0.52916 -2.046111,-0.52916 -2.046111,-0.0353 0,0.3175 -0.705556,0.45861 -2.081389,0.49389 -1.728611,0.0705 -2.328333,-0.10584 -3.421945,-0.81139 -1.340555,-0.91723 -3.668889,-1.41111 -3.668889,-0.77611 0,0.21166 -0.211666,0.28222 -0.458611,0.17638 -0.282222,-0.10583 -1.234722,-0.0353 -2.187222,0.14112 -0.9525,0.17638 -1.799167,0.21166 -1.905,0.0353 -0.105834,-0.14111 -0.987778,-0.24694 -1.975556,-0.21166 -0.9525,0.0353 -2.2225,-0.17639 -2.751667,-0.45861 -0.917222,-0.45862 -1.340556,-0.42334 -4.233334,0.28222 -2.54,0.59972 -4.515555,0.81139 -9.066389,0.88194 -3.210278,0.0706 -8.431389,0.21167 -11.641667,0.3175 -3.210278,0.10584 -8.501945,0.24695 -11.818057,0.3175 -3.280833,0.0706 -7.196667,0.14111 -8.643056,0.21167 -1.446389,0.0353 -3.210278,-0.0353 -3.880556,-0.14111 -2.998611,-0.45861 -13.5466671,-0.24695 -14.4286116,0.3175 -0.4233334,0.24694 -5.22111146,-1.55222 -6.8438893,-2.54 -0.9525001,-0.59972 -2.0461113,-0.88195 -3.8805558,-0.98778 -1.6933335,-0.14111 -2.6811113,-0.35278 -2.9280558,-0.70556 -0.4586111,-0.59972 -0.4938889,-0.59972 -1.2347223,-0.17638 z"
       id="path65"
       style="stroke-width:0.0352778" />
  </g>
</svg>
