<?xml version="1.0" encoding="UTF-8" standalone="no"?>
<!-- Created with Inkscape (http://www.inkscape.org/) -->

<svg
   width="182.26596mm"
   height="143.46051mm"
   viewBox="0 0 182.26596 143.46051"
   version="1.1"
   id="svg198"
   inkscape:version="1.1.1 (3bf5ae0d25, 2021-09-20, custom)"
   sodipodi:docname="clip5.svg"
   xmlns:inkscape="http://www.inkscape.org/namespaces/inkscape"
   xmlns:sodipodi="http://sodipodi.sourceforge.net/DTD/sodipodi-0.dtd"
   xmlns="http://www.w3.org/2000/svg"
   xmlns:svg="http://www.w3.org/2000/svg">
  <sodipodi:namedview
     id="namedview200"
     pagecolor="#505050"
     bordercolor="#eeeeee"
     borderopacity="1"
     inkscape:pageshadow="0"
     inkscape:pageopacity="0"
     inkscape:pagecheckerboard="0"
     inkscape:document-units="mm"
     showgrid="false"
     inkscape:zoom="0.35355596"
     inkscape:cx="509.11318"
     inkscape:cy="-52.325521"
     inkscape:window-width="512"
     inkscape:window-height="850"
     inkscape:window-x="1074"
     inkscape:window-y="12"
     inkscape:window-maximized="1"
     inkscape:current-layer="layer1" />
  <defs
     id="defs195" />
  <g
     inkscape:label="Layer 1"
     inkscape:groupmode="layer"
     id="layer1"
     transform="translate(36.985424,-130.32174)">
    <path
       d="m 65.938156,130.47479 c -0.3175,0.3175 -16.474723,0.98778 -19.896668,0.84667 -3.4925,-0.17639 -9.736667,0.0705 -10.618612,0.38805 -0.493889,0.21167 -1.27,0.35278 -1.763889,0.35278 -0.458611,0 -1.128889,0.14111 -1.481667,0.3175 -0.917222,0.49389 -5.221111,1.16417 -8.113889,1.30528 -1.446389,0.0353 -3.104445,0.24694 -3.704167,0.42333 -0.635,0.17639 -2.151945,0.28223 -3.421945,0.24695 -1.27,-0.0353 -2.610555,0.0706 -2.998611,0.21166 -0.917222,0.3175 -5.6797225,0.77612 -8.8194449,0.84667 -1.3405556,0.0353 -6.8438893,0.17639 -12.2061119,0.3175 -6.8086112,0.21167 -9.9836122,0.17639 -10.4775002,-0.10583 -0.529167,-0.28222 -1.164167,-0.24695 -2.434167,0.10583 -0.917223,0.28222 -2.645834,0.77611 -3.81,1.09361 -1.164167,0.3175 -2.822223,0.91722 -3.704167,1.34056 -0.846667,0.42333 -1.728612,0.77611 -1.905001,0.77611 -0.599722,0 -0.635,1.09361 -0.105833,1.65805 0.423334,0.42334 0.458611,0.635 0.03528,1.37584 -0.246945,0.45861 -0.352778,1.19944 -0.246945,1.62278 0.105834,0.42333 -0.07055,1.27 -0.352777,1.83444 -0.3175,0.635 -0.388056,1.16417 -0.211667,1.30528 0.176389,0.10583 0.3175,0.70555 0.3175,1.30528 0,0.635 0.141111,1.65805 0.3175,2.25777 0.282222,0.91723 0.211667,1.30528 -0.352778,2.01084 -0.458611,0.59972 -0.529166,0.91722 -0.246944,0.98778 0.282222,0.10583 0.176389,0.635 -0.352778,1.72861 -0.423333,0.88194 -0.846667,2.08139 -0.917222,2.68111 -0.03528,0.59972 -0.352778,1.44639 -0.705556,1.905 -0.3175,0.45861 -0.564444,1.51694 -0.564444,2.36361 0,0.81139 -0.211667,1.86972 -0.493889,2.29306 -0.282223,0.42333 -0.599723,1.48166 -0.740834,2.36361 -0.3175,2.64583 -0.388055,2.89277 -0.917222,3.31611 -0.670278,0.52916 -0.811389,2.78694 -0.564444,9.03111 0.03528,0.67028 -0.07056,1.5875 -0.211667,1.97556 -0.211667,0.59972 -0.105833,0.81138 0.493889,0.9525 0.388055,0.10583 0.670278,0.35277 0.564444,0.49388 -0.282222,0.42334 0.458611,2.50473 1.27,3.63362 0.705556,1.02305 0.776112,2.04611 0.176389,3.42194 -0.211666,0.52917 -0.458611,1.37583 -0.493889,1.86972 -0.07055,0.45861 -0.846666,1.55222 -1.728611,2.39889 -1.728611,1.72861 -1.763889,1.83445 -1.164167,4.09222 0.352778,1.30528 0.3175,1.76389 -0.07055,2.50473 -0.388056,0.74083 -0.388056,0.98777 -0.07056,1.19944 0.246945,0.14111 0.458611,0.56445 0.458611,0.9525 -0.03528,0.35278 -0.03528,1.19945 -0.03528,1.86972 -0.03528,0.635 0.141111,1.37584 0.3175,1.55223 0.211666,0.21166 0.388055,0.70555 0.388055,1.12888 0,0.38806 0.388056,1.30528 0.917222,2.04612 0.811389,1.19944 0.846667,1.37583 0.352778,1.86972 -0.776111,0.77611 -0.705555,1.16417 0.282223,1.41111 0.635,0.14111 0.881944,0.49389 1.058333,1.5875 0.105833,0.74083 0.388056,1.37583 0.599722,1.37583 0.211667,0 0.246945,0.21167 0.03528,0.56445 -0.176389,0.35278 -0.211667,1.12889 -0.03528,1.86972 0.211667,0.91722 0.141111,1.41111 -0.246944,1.83444 -0.282223,0.3175 -0.635,1.16417 -0.740834,1.86973 -0.176389,1.09361 -0.105833,1.27 0.529167,1.27 0.811389,0 2.328334,2.8575 2.716389,5.18583 0.211667,1.23472 0.105833,1.5875 -0.599722,2.29306 -1.058334,1.02305 -1.763889,2.39889 -1.552222,2.96333 0.105833,0.24694 -0.07056,0.635 -0.352778,0.84667 -0.282223,0.24694 -0.493889,0.59972 -0.493889,0.77611 0,0.17639 -0.352778,0.77611 -0.740834,1.34055 -0.423333,0.56445 -0.740833,1.44639 -0.705555,2.01084 0.03528,0.52916 0.07055,1.44639 0.07055,1.97555 0,0.56445 0.211667,1.37584 0.493889,1.79917 0.846667,1.23472 1.023056,3.31611 0.388056,4.26861 -0.776111,1.19945 -0.705556,1.51695 0.458611,2.2225 0.811389,0.49389 0.9525,0.74083 0.705556,1.23472 -0.246945,0.38806 -0.176389,0.91723 0.176389,1.62278 0.282222,0.52917 0.458611,1.09361 0.352777,1.19945 -0.105833,0.10583 0.07056,0.77611 0.352778,1.48166 0.3175,0.70556 0.458611,1.44639 0.388056,1.62278 -0.105834,0.14111 -0.282223,1.65806 -0.388056,3.31611 -0.141111,2.82222 -0.105833,3.13972 0.811389,4.7625 0.529167,0.98778 1.199445,1.76389 1.446389,1.76389 0.282222,0 0.352778,0.28222 0.211667,0.88195 -0.246945,0.9525 0.529166,3.03388 1.093611,2.92805 0.176389,-0.0353 0.811389,0.14111 1.411111,0.38806 0.881945,0.38805 1.411111,0.28222 4.233334,-0.70556 4.303889,-1.51694 7.020278,-1.79917 29.0688904,-2.78694 6.8438896,-0.28223 8.6783336,-0.28223 8.8900006,0.0705 0.141111,0.24695 0.388056,0.3175 0.529167,0.21167 0.105833,-0.14111 0.670278,-0.0353 1.234722,0.24694 0.670278,0.35278 2.151945,0.52917 4.621389,0.52917 2.010834,0.0353 4.339167,0.21167 5.221112,0.38806 0.881944,0.21166 2.716389,0.49388 4.056944,0.67027 1.375834,0.14111 3.033889,0.42334 3.704167,0.635 1.234723,0.38806 17.603612,0.67028 26.987502,0.45861 6.173611,-0.10583 15.839723,0.52917 17.744723,1.19945 1.305278,0.45861 2.328334,0.49389 7.16139,0.14111 4.7625,-0.3175 6.173611,-0.28222 8.713611,0.14111 5.432782,0.9525 26.352502,1.69333 35.806952,1.27 2.89277,-0.14111 3.175,-0.0705 3.77472,0.67028 0.81139,0.9525 2.54,1.37583 3.06917,0.70555 0.49389,-0.59972 1.16417,-3.4925 1.16417,-4.93888 0,-0.635 0.28222,-1.65806 0.635,-2.29306 2.08139,-3.81 2.71639,-4.69195 3.81,-5.22111 1.48166,-0.70556 1.86972,-1.97556 1.09361,-3.35139 -0.3175,-0.52917 -0.49389,-1.05833 -0.35278,-1.19945 0.10583,-0.10583 -0.0706,-0.52916 -0.42333,-0.91722 -0.56445,-0.59972 -0.635,-1.23472 -0.56445,-3.73944 0.0353,-1.65806 0.21167,-3.35139 0.35278,-3.77472 0.17639,-0.45862 0.24694,-1.27001 0.17639,-1.83445 -0.0706,-0.59972 -0.10583,-1.86972 -0.0706,-2.82222 0.17639,-6.24417 0.14111,-6.63222 -1.34055,-9.2075 -1.76389,-3.13972 -2.18723,-4.23334 -2.2225,-5.85611 -0.0353,-0.74084 -0.24695,-1.44639 -0.52917,-1.5875 -0.56444,-0.3175 -1.02306,-5.3975 -0.45861,-5.3975 0.21167,0 0.21167,-0.17639 -0.0353,-0.45862 -0.35278,-0.42333 0,-4.05694 0.45861,-4.83305 0.14111,-0.21167 0.3175,-1.69333 0.42334,-3.28083 0.0705,-1.58751 0.24694,-4.09223 0.35277,-5.53862 0.3175,-4.69194 0.35278,-6.35 0.14111,-6.35 -0.10583,0 -0.21166,-0.91722 -0.24694,-2.04611 -0.0353,-1.79916 -0.28222,-3.42194 -0.635,-4.48028 -0.38806,-1.12889 0.45861,-5.89139 1.41111,-7.79639 0.81139,-1.69333 1.02306,-2.61055 1.09361,-4.90361 0.0706,-1.55222 0.3175,-5.11528 0.56445,-7.9375 0.45861,-5.18583 0.28222,-8.89 -0.49389,-10.12472 -0.3175,-0.52917 -0.24695,-0.9525 0.3175,-2.08139 0.59972,-1.16417 0.635,-1.62278 0.35278,-3.13972 -0.17639,-0.98778 -0.38806,-2.89278 -0.42334,-4.23334 -0.0705,-1.37583 -0.21166,-3.66888 -0.35277,-5.15055 -0.21167,-2.43417 -0.14112,-2.71639 0.52916,-3.35139 0.42334,-0.35278 0.9525,-1.05833 1.19945,-1.55222 0.59972,-1.19945 0.38805,-4.62139 -0.3175,-5.15056 -0.3175,-0.21167 -0.56445,-0.56444 -0.56445,-0.77611 0,-0.70556 -2.50472,-1.19944 -8.29028,-1.62278 -0.56444,-0.0353 -1.69333,-0.24694 -2.46944,-0.45861 -2.01083,-0.59972 -5.11528,-0.91722 -9.06639,-0.91722 -2.50472,0 -3.35139,-0.10583 -3.24556,-0.42333 0.17639,-0.45862 -1.94027,-1.02306 -6.31472,-1.62278 -2.71639,-0.35278 -5.32694,-0.17639 -6.10305,0.42333 -0.24695,0.21167 -0.52917,0.14111 -0.77612,-0.10583 -0.24694,-0.3175 -1.72861,-0.49389 -4.55083,-0.56445 -2.29306,-0.0705 -5.115283,-0.28222 -6.279449,-0.49389 -2.293056,-0.42333 -3.915834,-0.42333 -6.702779,-0.0706 -1.411111,0.17639 -1.905,0.10583 -2.257778,-0.35278 -0.282222,-0.35278 -1.058333,-0.56444 -1.940278,-0.59972 -0.776111,-0.0353 -1.834444,-0.14111 -2.328333,-0.28222 -0.493889,-0.14111 -1.5875,-0.0706 -2.469445,0.14111 -1.234722,0.3175 -1.869722,0.3175 -2.822222,-0.0353 -1.693333,-0.59972 -3.175,-0.59972 -3.880556,0.0353 -0.529166,0.45861 -0.670278,0.45861 -1.340555,-0.17639 -0.846667,-0.77611 -1.693334,-0.91722 -1.905001,-0.28222 -0.105833,0.28222 -0.388055,0.3175 -0.846666,0.10583 -0.705556,-0.3175 -3.4925,-0.59972 -3.704167,-0.35278 z"
       id="path67"
       style="stroke-width:0.0352778" />
  </g>
</svg>
