<?xml version="1.0" encoding="UTF-8" standalone="no"?>
<!-- Created with Inkscape (http://www.inkscape.org/) -->

<svg
   width="197.09821mm"
   height="74.149696mm"
   viewBox="0 0 197.0982 74.149696"
   version="1.1"
   id="svg198"
   inkscape:version="1.1.1 (3bf5ae0d25, 2021-09-20, custom)"
   sodipodi:docname="clip3.svg"
   xmlns:inkscape="http://www.inkscape.org/namespaces/inkscape"
   xmlns:sodipodi="http://sodipodi.sourceforge.net/DTD/sodipodi-0.dtd"
   xmlns="http://www.w3.org/2000/svg"
   xmlns:svg="http://www.w3.org/2000/svg">
  <sodipodi:namedview
     id="namedview200"
     pagecolor="#505050"
     bordercolor="#eeeeee"
     borderopacity="1"
     inkscape:pageshadow="0"
     inkscape:pageopacity="0"
     inkscape:pagecheckerboard="0"
     inkscape:document-units="mm"
     showgrid="false"
     inkscape:zoom="0.35355596"
     inkscape:cx="551.53928"
     inkscape:cy="-26.869862"
     inkscape:window-width="512"
     inkscape:window-height="850"
     inkscape:window-x="1074"
     inkscape:window-y="12"
     inkscape:window-maximized="1"
     inkscape:current-layer="layer1" />
  <defs
     id="defs195" />
  <g
     inkscape:label="Layer 1"
     inkscape:groupmode="layer"
     id="layer1"
     transform="translate(48.257257,-123.7148)">
    <path
       d="m 12.874903,123.88359 c -1.446389,0.14111 -3.104445,0.42333 -3.7041673,0.635 -0.5644445,0.21166 -1.7286112,0.45861 -2.5400002,0.52916 -0.8113889,0.0706 -1.7286112,0.3175 -2.0108334,0.56445 -0.6702778,0.56444 -4.72722254,1.48167 -4.974167,1.09361 -0.0705556,-0.14111 -1.0583334,-0.10583 -2.1872224,0.0353 -2.8927779,0.38805 -14.7461117,0.52916 -16.8627787,0.21166 -0.9525,-0.17638 -3.668889,-0.28222 -5.997223,-0.28222 -2.328333,0 -4.797778,-0.14111 -5.538611,-0.3175 -4.374445,-1.19944 -10.089445,-1.37583 -12.065001,-0.38805 -0.811389,0.38805 -2.010833,0.77611 -2.716389,0.91722 -1.058333,0.14111 -1.340556,0.38805 -1.481667,1.16417 -0.105833,0.59972 0.07056,1.27 0.493889,1.86972 0.388056,0.56444 0.776111,1.86972 0.881945,3.10444 0.141111,1.23472 0.423333,2.18722 0.705555,2.29306 0.282223,0.10583 0.458611,0.98778 0.493889,2.57528 0.141111,6.6675 0.282222,8.46666 0.670278,9.24277 0.282222,0.52917 0.388056,1.37584 0.211667,2.39889 -0.141111,1.05834 -0.07056,1.72861 0.211666,2.11667 0.529167,0.59972 0.493889,2.46945 -0.03528,3.10445 -0.176389,0.24694 -0.246945,0.52916 -0.141112,0.635 0.458612,0.45861 -0.211666,1.905 -1.128888,2.36361 -1.305278,0.74083 -2.328334,3.03389 -2.046112,4.69194 0.141111,1.02306 0.07056,1.51695 -0.423333,2.04611 -0.352778,0.38806 -0.423333,0.67028 -0.211667,0.67028 0.635,0 0.493889,2.29306 -0.105833,2.82222 -0.3175,0.24695 -0.423333,0.59972 -0.282222,0.74084 0.141111,0.14111 0.176389,1.51694 0.03528,3.03389 -0.141111,1.51694 -0.282222,3.45722 -0.352777,4.33916 -0.105834,0.88195 0.07055,2.11667 0.352777,2.82222 0.3175,0.67028 0.493889,1.37584 0.458612,1.55223 -0.03528,0.17639 0.03528,0.56444 0.176388,0.88194 0.388056,0.91722 0.529167,1.51695 0.705556,3.175 0.105833,0.88195 0.3175,1.76389 0.529167,2.01083 0.246944,0.28223 0.176389,0.81139 -0.176389,1.65806 -0.599722,1.44639 -0.246945,2.01083 1.234722,2.01083 0.529167,0 1.023056,0.17639 1.093611,0.35278 0.07056,0.24695 1.305278,0.28222 3.810001,0.0706 3.633611,-0.28222 7.161389,-0.0706 9.525,0.59972 0.670278,0.17639 2.363611,0.67028 3.704167,1.09361 1.375834,0.38806 3.104445,0.81139 3.880556,0.88195 0.740833,0.10583 1.693333,0.38805 2.116667,0.67027 1.128889,0.70556 2.257778,0.98778 5.291667,1.27 6.1030556,0.56445 9.9483337,1.09361 11.4652782,1.5875 0.8819445,0.28223 2.7163891,0.56445 4.0569447,0.59973 2.081389,0.0353 2.7163891,-0.10584 4.0569447,-0.88195 0.8819445,-0.49389 2.4694446,-1.05833 3.527778,-1.23472 2.9280554,-0.52917 18.6619454,-0.0706 21.6958344,0.635 0.987778,0.21167 3.951112,0.38805 6.702778,0.3175 2.71639,-0.0353 9.101668,-0.0353 14.14639,-0.0353 8.572501,0.0706 9.348612,0.10583 10.936112,0.81139 1.552222,0.67028 2.504722,0.77611 9.666112,0.88194 6.0325,0.10584 8.5725,0 10.583334,-0.38805 2.328333,-0.45861 6.385278,-0.635 14.111112,-0.56445 1.27,0.0353 3.845278,-0.28222 5.715002,-0.67027 1.86972,-0.38806 4.58611,-0.70556 6.0325,-0.70556 3.31611,0 8.04333,-0.88194 9.91305,-1.83444 1.41112,-0.74084 1.62278,-0.74084 7.09084,-0.35278 7.44361,0.56444 12.55889,0 16.8275,-1.86972 3.73944,-1.62278 4.97417,-2.61056 5.50333,-4.37445 0.59973,-1.97555 0.56445,-6.56167 -0.0705,-8.64305 -0.42334,-1.34056 -0.45861,-2.32834 -0.21167,-4.23334 0.28222,-2.32833 0.21167,-4.55083 -0.21167,-6.45583 -0.0705,-0.42334 -0.52916,-1.16417 -0.98777,-1.5875 -0.45861,-0.45861 -0.91723,-1.19945 -1.02306,-1.69334 -0.24694,-1.02305 0.84667,-4.16277 2.78695,-8.00805 1.09361,-2.11667 1.27,-2.75167 1.12888,-4.1275 -0.14111,-1.02306 -0.0353,-1.83445 0.28223,-2.25778 0.42333,-0.635 0.88194,-7.47889 0.49389,-7.47889 -0.10584,0 -0.21167,-0.28222 -0.24695,-0.635 -0.0705,-0.70555 -0.42333,-2.68111 -0.67028,-3.88055 -0.10583,-0.56445 -0.38805,-0.77612 -1.12889,-0.77612 -1.65805,0 -2.54,-0.38805 -2.54,-1.12888 0,-0.35278 -0.38805,-1.23473 -0.88194,-1.94028 -0.635,-0.98778 -0.77611,-1.44639 -0.49389,-1.94028 0.17639,-0.35278 0.52917,-0.635 0.77611,-0.635 0.77611,0 -0.56444,-0.67028 -2.57528,-1.27 -2.43416,-0.74083 -6.70277,-0.88195 -6.70277,-0.21167 0,0.28222 -0.17639,0.35278 -0.42334,0.17639 -0.45861,-0.28222 -4.86833,-0.45861 -14.21694,-0.59972 -4.93889,-0.0706 -7.86695,-0.49389 -9.34861,-1.27 -0.35278,-0.17639 -1.30528,-0.38806 -2.15195,-0.49389 -0.84667,-0.0706 -2.50472,-0.49389 -3.63361,-0.88194 -1.16417,-0.42334 -2.39889,-0.67028 -2.75167,-0.52917 -0.35278,0.10583 -0.635,0.0353 -0.635,-0.14111 0,-0.45861 -2.50472,-0.45861 -3.069164,-0.0353 -0.246945,0.24694 -0.493889,0.21167 -0.635,0 -0.141111,-0.24694 -0.529167,-0.17639 -1.164167,0.24694 -1.446389,0.9525 -7.902223,1.48167 -9.948334,0.84667 -0.881945,-0.28222 -1.728611,-0.635 -1.940278,-0.77611 -0.176389,-0.14111 -1.5875,-0.35278 -3.069167,-0.49389 -1.516944,-0.14111 -3.351389,-0.45861 -4.056944,-0.70555 -0.740834,-0.24695 -1.975556,-0.38806 -2.786945,-0.28223 -0.987778,0.0706 -1.622778,-0.0353 -1.975556,-0.42333 -0.458611,-0.42333 -0.9525,-0.45861 -2.786944,-0.21167 -1.234723,0.17639 -5.362223,0.42334 -9.136945,0.52917 -3.774723,0.14111 -7.725834,0.28222 -8.784168,0.35278 -1.023055,0.0705 -2.293055,-0.0353 -2.822222,-0.17639 -1.693333,-0.56445 -4.727223,-0.74083 -15.204723,-0.88195 -9.242779,-0.10583 -12.453057,-0.24694 -16.933335,-0.67027 -0.670277,-0.0706 -2.434166,0 -3.880555,0.14111 z"
       id="path71"
       style="stroke-width:0.0352778" />
  </g>
</svg>
