<?xml version="1.0" encoding="UTF-8" standalone="no"?>
<!-- Created with Inkscape (http://www.inkscape.org/) -->

<svg
   width="224.94377mm"
   height="156.72531mm"
   viewBox="0 0 224.94377 156.72531"
   version="1.1"
   id="svg198"
   inkscape:version="1.1.1 (3bf5ae0d25, 2021-09-20, custom)"
   sodipodi:docname="clip1.svg"
   xmlns:inkscape="http://www.inkscape.org/namespaces/inkscape"
   xmlns:sodipodi="http://sodipodi.sourceforge.net/DTD/sodipodi-0.dtd"
   xmlns="http://www.w3.org/2000/svg"
   xmlns:svg="http://www.w3.org/2000/svg">
  <sodipodi:namedview
     id="namedview200"
     pagecolor="#505050"
     bordercolor="#eeeeee"
     borderopacity="1"
     inkscape:pageshadow="0"
     inkscape:pageopacity="0"
     inkscape:pagecheckerboard="0"
     inkscape:document-units="mm"
     showgrid="false"
     inkscape:zoom="0.35355596"
     inkscape:cx="398.80532"
     inkscape:cy="230.51513"
     inkscape:window-width="512"
     inkscape:window-height="850"
     inkscape:window-x="1074"
     inkscape:window-y="12"
     inkscape:window-maximized="1"
     inkscape:current-layer="layer1" />
  <defs
     id="defs195" />
  <g
     inkscape:label="Layer 1"
     inkscape:groupmode="layer"
     id="layer1"
     transform="translate(8.1467288,-55.24873)">
    <path
       d="m 205.82182,55.373316 c -0.28222,0.211667 -0.88194,0.352778 -1.27,0.352778 -1.27,0 -4.51555,1.481667 -5.32694,2.398889 -0.67028,0.811389 -1.05833,0.917222 -3.35139,0.9525 -2.36361,0.07055 -5.53861,0.846667 -6.42056,1.658056 -0.49389,0.423333 -2.78694,0.352777 -2.50472,-0.07056 0.14111,-0.246944 -0.0705,-0.246944 -0.59972,-0.03528 -0.81139,0.352778 -3.13972,0.705556 -5.75028,0.9525 -0.77611,0.03528 -2.32833,0.176389 -3.4925,0.282223 -1.76389,0.141111 -2.32833,0.03528 -3.77472,-0.740834 l -1.69334,-0.917222 -0.88194,0.846667 c -0.52917,0.493889 -0.91722,1.234722 -0.91722,1.799166 0,1.763889 -0.59972,2.681112 -1.94028,3.069167 -0.70556,0.176389 -1.51694,0.635 -1.86972,1.023056 -0.45861,0.493889 -1.44639,0.776111 -3.95111,1.093611 -1.86973,0.246944 -3.59834,0.635 -3.91584,0.917222 -0.28222,0.282223 -0.67027,0.529167 -0.81139,0.529167 -0.14111,0 -0.91722,0.3175 -1.72861,0.670278 -0.84666,0.388055 -1.97555,0.811389 -2.54,0.9525 -0.59972,0.141111 -1.34055,0.493889 -1.69333,0.811389 -0.59972,0.529167 -0.70556,0.493889 -1.19945,-0.141111 -0.28222,-0.388056 -0.59972,-0.529167 -0.67027,-0.352778 -0.0706,0.211667 -1.02306,0.352778 -2.11667,0.282222 -1.55222,-0.03528 -2.18722,-0.246944 -2.92805,-0.917222 -0.635,-0.599722 -1.51695,-0.9525 -2.8575,-1.093611 -1.05833,-0.141111 -2.01083,-0.211667 -2.11667,-0.176389 -0.10583,0.03528 -0.52916,-0.105834 -0.9525,-0.3175 -0.45861,-0.246945 -0.84667,-0.282222 -0.98778,-0.105834 -0.49389,0.846667 -4.62139,-0.141111 -7.02027,-1.658055 -0.98778,-0.635 -2.2225,-1.128889 -2.82223,-1.128889 -0.56444,0 -1.5875,-0.176389 -2.2225,-0.423334 -1.02305,-0.352777 -1.27,-0.352777 -1.55222,0.07056 -0.28222,0.458611 -0.35278,0.458611 -0.635,0.03528 -0.28222,-0.423334 -0.42333,-0.423334 -0.91722,0.07055 -0.3175,0.352778 -1.12889,0.599723 -1.76389,0.599723 -0.9525,0 -1.19945,-0.141112 -1.30528,-0.811389 -0.0706,-0.458611 -0.52917,-0.987778 -1.23472,-1.305278 -0.67028,-0.3175 -1.16417,-0.811389 -1.16417,-1.164167 0,-0.635 -0.0353,-0.635 -0.9525,0.03528 -0.56444,0.352778 -1.55222,0.917222 -2.2225,1.27 -0.67028,0.3175 -1.48166,0.705556 -1.76389,0.881944 -0.70555,0.388056 -4.05694,1.446389 -4.58611,1.446389 -0.21166,0 -0.635,0.211667 -0.88194,0.493889 -0.70556,0.670278 -2.75167,0.423334 -4.90361,-0.635 -1.02306,-0.493889 -1.975559,-0.917222 -2.081393,-0.917222 -0.141111,0 -1.199444,-0.740833 -2.363611,-1.622778 -2.187222,-1.728611 -2.963333,-1.834444 -3.4925,-0.423333 -0.458611,1.199444 -5.185834,3.880556 -11.324167,6.455833 -1.27,0.529167 -2.963334,1.340556 -3.774723,1.799167 l -1.481667,0.846667 -2.116666,-0.705556 c -1.164167,-0.388055 -2.504723,-0.705555 -2.998612,-0.705555 -0.493889,0 -0.9525,-0.141111 -1.058333,-0.3175 -0.105833,-0.176389 -0.529167,-0.246945 -0.917222,-0.141111 -0.388056,0.105833 -1.093612,-0.07056 -1.5875,-0.388056 -0.776112,-0.529167 -3.598334,-1.058333 -7.690557,-1.481667 -1.552222,-0.141111 -1.763889,-0.07055 -2.822222,1.023056 -0.917222,0.987778 -1.411111,1.234722 -2.645834,1.27 -0.846666,0 -2.010833,-0.211667 -2.575278,-0.529167 -1.375833,-0.670278 -4.409722,-1.199444 -8.5725,-1.375833 -4.974167,-0.246945 -5.609167,-0.493889 -8.149167,-3.175 -1.693334,-1.763889 -2.434167,-2.328334 -3.069167,-2.257778 -0.846667,0.105833 -2.822222,-0.776111 -3.880556,-1.728611 -0.529166,-0.423334 -0.9525,-0.458612 -2.716389,-0.105834 -1.446389,0.282222 -2.54,0.3175 -3.633611,0.07056 -0.9525,-0.211667 -2.010834,-0.246945 -2.681111,-0.07056 -0.599723,0.176389 -1.164167,0.246945 -1.270001,0.105834 -0.105833,-0.105834 -0.211666,-0.03528 -0.211666,0.176388 0,0.388056 -5.644445,0.352778 -6.279445,-0.03528 -0.211667,-0.141111 -1.234722,-0.3175 -2.2577782,-0.423334 -1.023056,-0.07055 -2.187222,-0.176389 -2.610556,-0.246944 -0.493889,-0.03528 -1.340555,0.635 -2.716389,2.2225 -2.716389,3.069167 -3.77472205,5.362223 -3.77472205,8.043334 0,1.199444 -0.352778,3.175 -0.776111,4.515556 -0.423334,1.340555 -0.776112,3.421944 -0.811389,4.621389 0,1.199444 -0.141111,2.293056 -0.246945,2.434167 -0.14111095,0.105833 -0.14111095,0.423333 -0.03528,0.705555 0.10583385,0.282223 -0.07056,0.776111 -0.352777,1.128889 -1.234723,1.375834 -2.328334,4.198056 -2.54,6.596945 -0.388056,4.7625 -0.493889,5.291667 -1.023056,6.596945 -0.3175,0.776111 -0.564445,2.328335 -0.564445,3.774725 0,1.34055 -0.211666,2.82222 -0.458611,3.31611 -0.599722,1.12889 -0.811389,10.97139 -0.246944,12.3825 0.176389,0.52917 0.246944,1.12889 0.141111,1.34055 -0.141111,0.21167 -0.282222,1.27 -0.352778,2.36362 -0.246944,4.445 -0.458611,6.35 -0.776111,6.985 -0.176389,0.35277 -0.352778,1.72861 -0.388056,3.06916 -0.03528,1.34056 -0.211666,2.68111 -0.352777,2.99862 -0.176389,0.3175 -0.246945,1.79916 -0.211667,3.28083 0.07055,2.08139 0.246944,2.92805 0.811389,3.63361 0.9525,1.16417 1.199444,3.35139 1.305278,10.58333 0.07055,6.45584 0.3175,7.51417 1.975555,9.8425 0.564445,0.77612 1.023056,1.5875 1.023056,1.79917 0,0.17639 0.3175,0.9525 0.705556,1.72861 0.564444,1.02306 0.670277,1.69334 0.529166,2.8575 -0.141111,0.81139 -0.03528,2.68111 0.211667,4.09223 0.458611,2.54 0.63499985,5.92666 0.63499985,11.07722 0,1.34055 0,3.45722 0,4.65667 -0.03528,2.08138 0.705556,3.98638 1.481667,3.98638 0.282222,0 2.04611115,3.13973 2.11666715,3.77473 0.07055,0.38805 0.3175,1.12889 0.811389,2.54 0.599722,1.5875 2.645833,2.36361 4.162778,1.5875 0.564444,-0.28223 2.010833,-0.67028 3.2102782,-0.81139 1.199444,-0.17639 3.210278,-0.56445 4.480278,-0.84667 3.139722,-0.77611 9.031111,-1.34055 15.345834,-1.41111 5.891389,-0.0706 6.279444,-0.0353 8.995834,1.34056 1.728611,0.88194 2.398889,0.98777 5.997222,1.09361 2.716389,0.0353 4.656667,-0.10584 5.926667,-0.42334 1.940278,-0.52916 4.268612,-0.3175 7.761112,0.81139 0.811389,0.24695 2.293056,0.45861 3.245556,0.45861 0.987778,0 2.046111,0.14111 2.398889,0.3175 4.374445,2.11667 7.478889,3.28084 8.396111,3.10445 0.458612,-0.0706 1.023056,0.0705 1.234723,0.3175 0.211666,0.28222 0.635,0.49389 0.881944,0.49389 0.282223,0 0.776111,0.14111 1.128889,0.3175 0.3175,0.17639 1.481667,0.74083 2.54,1.30528 2.575278,1.27 4.833056,2.57527 6.632223,3.73944 1.622778,1.09361 3.563056,1.5875 6.385278,1.65806 1.728611,0.0353 2.504723,-0.24695 7.937503,-2.89278 5.67972,-2.78695 6.20889,-2.96334 8.85472,-3.175 2.15194,-0.14111 3.35139,-0.42334 5.11528,-1.27 1.27,-0.59973 2.68111,-1.09361 3.175,-1.09361 0.49389,0 1.905,-0.49389 3.10444,-1.09362 2.01084,-0.9525 2.43417,-1.05833 4.05695,-0.81138 1.02305,0.17638 3.10444,0.3175 4.65666,0.3175 3.24556,0.0705 6.91445,0.59972 8.46667,1.27 0.88195,0.35277 4.55084,0.59972 11.81806,0.70555 3.175,0.0706 14.78139,-0.70555 15.875,-1.05833 0.67027,-0.21167 1.76389,-0.38806 2.43416,-0.38806 0.635,0 1.72861,-0.3175 2.36361,-0.74083 1.41112,-0.84667 3.31612,-1.44639 3.31612,-1.02306 0,0.17639 0.59972,0.49389 1.34055,0.74084 0.70556,0.21166 1.48167,0.49389 1.65806,0.635 0.21166,0.10583 0.635,0.24694 1.02305,0.28222 0.35278,0.0705 1.16417,0.3175 1.76389,0.59972 0.59972,0.24695 1.65806,0.67028 2.32834,0.91722 0.67027,0.21167 1.62277,0.635 2.11666,0.88195 0.49389,0.24694 2.68111,0.9525 4.86834,1.55222 3.63361,1.02306 4.16277,1.05833 6.70277,0.77611 2.32834,-0.28222 3.42195,-0.67028 7.72584,-2.82222 5.25639,-2.64583 6.45583,-3.70417 6.45583,-5.85611 0,-0.52917 0.28222,-1.37584 0.67028,-1.86972 0.635,-0.91723 1.34056,-6.0325 1.12889,-8.07862 -0.0353,-0.42333 0.10583,-1.44639 0.35278,-2.29305 0.21166,-0.84667 0.38805,-2.11667 0.35277,-2.8575 0,-0.74084 0.10584,-1.65806 0.3175,-1.97556 0.17639,-0.35278 0.81139,-2.43416 1.37584,-4.65666 0.56444,-2.2225 1.30528,-4.62139 1.5875,-5.32695 0.38805,-0.91722 0.56444,-2.64583 0.59972,-5.82083 0.0353,-2.46945 0.21167,-4.79778 0.38806,-5.11528 0.28222,-0.56445 0.52916,-5.53861 0.67027,-13.86417 0.0353,-1.69333 -0.17639,-3.59833 -0.49389,-4.7625 -0.42333,-1.34055 -0.59972,-3.66889 -0.67027,-7.69056 -0.0353,-3.175 -0.17639,-5.82083 -0.28223,-5.89138 -0.10583,-0.0706 -0.14111,-3.81001 -0.10583,-8.36084 0.14111,-12.02972 0.0706,-15.73389 -0.3175,-16.36889 -0.14111,-0.21167 -0.35278,-1.62278 -0.49389,-3.175 -0.10583,-1.516943 -0.45861,-3.31611 -0.70555,-3.95111 -0.52917,-1.340555 -0.91723,-4.691944 -0.88195,-7.443611 0.0706,-2.328334 -0.56444,-7.090834 -1.19944,-9.031112 -0.3175,-1.023056 -0.38806,-2.928056 -0.28222,-6.879167 0.14111,-4.586111 0.0705,-6.103056 -0.52917,-9.172223 -1.05834,-5.326945 -1.16417,-6.279445 -0.77611,-6.526389 0.42333,-0.246945 0.49389,-0.917222 0.10583,-0.811389 -0.17639,0.03528 -0.77611,-0.176389 -1.37583,-0.529167 -0.59973,-0.3175 -1.19945,-0.458611 -1.30528,-0.352778 -0.14111,0.105834 -0.42333,0.03528 -0.70556,-0.176388 -0.28222,-0.246945 -0.635,-0.246945 -0.9525,-0.07056 z"
       id="path63"
       style="stroke-width:0.0352778" />
  </g>
</svg>
