<?xml version="1.0" encoding="UTF-8" standalone="no"?>
<!-- Created with Inkscape (http://www.inkscape.org/) -->

<svg
   width="221.37675mm"
   height="41.86021mm"
   viewBox="0 0 221.37675 41.86021"
   version="1.1"
   id="svg198"
   inkscape:version="1.1.1 (3bf5ae0d25, 2021-09-20, custom)"
   sodipodi:docname="clip2.svg"
   xmlns:inkscape="http://www.inkscape.org/namespaces/inkscape"
   xmlns:sodipodi="http://sodipodi.sourceforge.net/DTD/sodipodi-0.dtd"
   xmlns="http://www.w3.org/2000/svg"
   xmlns:svg="http://www.w3.org/2000/svg">
  <sodipodi:namedview
     id="namedview200"
     pagecolor="#505050"
     bordercolor="#eeeeee"
     borderopacity="1"
     inkscape:pageshadow="0"
     inkscape:pageopacity="0"
     inkscape:pagecheckerboard="0"
     inkscape:document-units="mm"
     showgrid="false"
     inkscape:zoom="0.35355596"
     inkscape:cx="596.79378"
     inkscape:cy="-35.355082"
     inkscape:window-width="512"
     inkscape:window-height="850"
     inkscape:window-x="1074"
     inkscape:window-y="12"
     inkscape:window-maximized="1"
     inkscape:current-layer="layer1" />
  <defs
     id="defs195" />
  <g
     inkscape:label="Layer 1"
     inkscape:groupmode="layer"
     id="layer1"
     transform="translate(60.463864,-125.61722)">
    <path
       d="m -28.888723,125.74382 c -0.105833,0.14112 -0.211667,0.49389 -0.211667,0.81139 0,0.70556 -1.622777,1.94028 -3.421944,2.61056 -0.740834,0.28222 -1.834445,0.70555 -2.469445,0.9525 -0.881944,0.35278 -1.305278,0.35278 -1.940278,0.0353 -1.305278,-0.70556 -5.362222,-0.635 -5.856111,0.14111 -0.352778,0.52916 -2.681112,1.55222 -3.527778,1.55222 -0.388056,0 -0.776111,0.21167 -0.881945,0.49389 -0.176389,0.38805 -3.457222,1.30528 -5.362222,1.48167 -6.314723,0.52916 -6.350001,0.52916 -7.055556,2.04611 -0.670278,1.37583 -0.846667,3.24555 -0.811389,8.32555 0.03528,5.50334 0,7.05556 -0.03528,10.68917 -0.03528,3.56306 0.529167,4.79778 2.928056,6.42056 1.693333,1.16416 2.116667,1.12889 3.739444,-0.28223 2.892778,-2.46944 8.925279,-3.95111 13.758335,-3.35139 1.658055,0.17639 3.4925,0.56445 4.056944,0.81139 2.046112,0.88195 5.326945,1.34056 9.348612,1.30528 2.681111,-0.0353 4.868334,0.17639 6.455834,0.56445 2.081389,0.49389 2.645833,0.49389 4.409722,0.0705 3.633612,-0.84666 5.8913895,-0.84666 7.6200007,0 1.3758334,0.635 1.763889,0.70556 3.0338891,0.35278 1.5522223,-0.42333 4.16277804,-0.42333 4.7625003,0.0353 0.21166668,0.14111 0.8819445,0.35278 1.5169445,0.49389 0.9172223,0.17639 1.3405557,0.0705 2.1872224,-0.635 0.5644445,-0.49389 1.6227779,-1.09361 2.3283335,-1.30528 1.5169445,-0.52917 4.8330555,-0.17639 5.4680555,0.56444 0.211667,0.28223 0.599723,0.49389 0.811389,0.49389 0.246945,0 1.340556,0.49389 2.469445,1.09361 1.975556,1.05834 2.116667,1.09361 4.021667,0.70556 1.340555,-0.28222 4.727222,-0.35278 10.301112,-0.24695 11.394723,0.24695 16.651112,0.635 16.862778,1.19945 0.141112,0.49389 2.328334,1.48167 3.280834,1.48167 0.388056,0 1.305278,-0.56445 2.046111,-1.23473 0.776111,-0.70555 1.869723,-1.41111 2.469445,-1.5875 1.023055,-0.28222 1.305278,-0.14111 3.598333,1.83445 1.340556,1.16416 2.575278,2.04611 2.681112,1.905 0.141111,-0.10584 0.458611,0 0.776111,0.24694 0.776111,0.67028 3.598333,1.65806 4.656667,1.65806 0.9525,0 1.622778,-0.59972 2.434167,-2.2225 0.846666,-1.72861 2.257778,-2.61056 5.150555,-3.24556 2.222501,-0.49389 2.998612,-0.52916 4.127501,-0.17639 0.740833,0.21167 2.504722,0.49389 3.880556,0.59973 1.728611,0.14111 3.280833,0.56444 4.833055,1.27 2.257778,1.02305 2.328334,1.02305 6.879168,0.81138 2.54,-0.10583 5.503333,-0.38805 6.632222,-0.56444 1.516947,-0.28222 2.575277,-0.28222 4.056947,0.0353 2.61056,0.52916 9.73667,0.45861 13.19389,-0.17639 1.51694,-0.24695 3.73944,-0.98778 5.00944,-1.5875 1.27,-0.59972 2.50473,-1.09361 2.78695,-1.09361 0.24694,0 1.30528,-0.635 2.32833,-1.41111 2.18722,-1.5875 3.81,-1.94028 7.58473,-1.65806 1.37583,0.14111 3.175,0.10583 4.02166,-0.0706 0.81139,-0.17638 1.48167,-0.14111 1.48167,0 0,0.17639 0.21167,0.31751 0.45861,0.31751 0.49389,0 5.46806,2.01083 6.0325,2.43416 1.44639,1.05834 4.1275,1.62278 7.97278,1.62278 2.2225,0 4.23333,-0.10583 4.445,-0.24694 0.17639,-0.14112 0.3175,-0.77612 0.28222,-1.41112 -0.0705,-0.635 0.45861,-3.03389 1.12889,-5.32694 0.67028,-2.32833 1.12889,-4.30389 1.05833,-4.445 -0.0705,-0.10583 -0.35277,-2.43417 -0.56444,-5.15056 -0.3175,-3.63361 -0.56445,-5.15055 -1.02306,-5.82083 -1.23472,-1.72861 -2.29305,-5.04472 -2.25777,-6.985 0.0353,-0.98778 -0.0706,-1.83445 -0.21167,-1.83445 -0.10583,0 -0.17639,-0.635 -0.10583,-1.41111 0.10583,-1.16416 0.0353,-1.41111 -0.45862,-1.41111 -1.12888,0 -3.42194,0.84667 -3.59833,1.30528 -0.10583,0.24694 -0.52917,0.45861 -0.98778,0.45861 -0.42333,0 -1.05833,0.3175 -1.44639,0.74083 -0.52916,0.59973 -0.91722,0.70556 -1.97555,0.52917 -0.81139,-0.14111 -1.79917,-0.0353 -2.50472,0.24695 -1.30528,0.56444 -4.72723,0.28222 -5.15056,-0.38806 -0.14111,-0.24694 -0.70556,-0.49389 -1.30528,-0.635 -0.88194,-0.17639 -1.12889,-0.0706 -1.48166,0.70556 -0.24695,0.59972 -0.84667,0.98777 -1.79917,1.27 -0.77611,0.21166 -1.51695,0.52916 -1.62278,0.67027 -0.24694,0.45861 -8.07861,0.17639 -8.96056,-0.28222 -0.38805,-0.21167 -1.16416,-0.38805 -1.76388,-0.38805 -0.56445,0 -1.09362,-0.17639 -1.16417,-0.42334 -0.10583,-0.24694 -1.02306,-0.45861 -2.39889,-0.52916 -1.23472,-0.0353 -2.32833,-0.24695 -2.46944,-0.45862 -0.14112,-0.24694 -1.65806,-0.28222 -4.62139,-0.14111 -2.39889,0.14111 -4.69195,0.24695 -5.08,0.21167 -2.11667,-0.0706 -5.32695,-0.52917 -5.64445,-0.77611 -0.52917,-0.42333 -2.681112,-0.17639 -2.998612,0.35278 -0.3175,0.52916 -3.457223,1.09361 -3.739445,0.635 -0.105833,-0.14111 -0.352778,-0.21167 -0.529167,-0.10584 -0.176389,0.14111 -1.446389,0.28223 -2.786944,0.35278 -1.834445,0.0706 -2.469445,0 -2.469445,-0.35278 0,-0.77611 -3.175,-1.37583 -4.1275,-0.77611 -0.211667,0.14111 -0.776111,0.10584 -1.234723,-0.0705 -0.423333,-0.14111 -1.763889,-0.24695 -2.928055,-0.21167 -1.5875,0.0706 -2.575278,-0.10583 -3.880556,-0.70556 -1.940278,-0.88194 -6.067778,-1.12888 -7.478889,-0.45861 -0.564445,0.28223 -0.917223,0.28223 -1.234723,0 -0.599722,-0.45861 -5.115278,-0.49389 -5.432778,-0.0353 -0.282222,0.49388 -1.728611,1.02305 -3.457222,1.19944 -0.776111,0.10583 -1.799167,0.35278 -2.2225,0.59972 -0.917223,0.45861 -3.139723,-0.10583 -4.762501,-1.19944 -0.670278,-0.45861 -1.164166,-0.56445 -1.763889,-0.35278 -0.423333,0.17639 -1.481667,0.42333 -2.293055,0.56444 -1.481667,0.21167 -1.516945,0.21167 -1.516945,-0.81138 v -0.98778 l -2.716389,0.67028 c -1.516945,0.38805 -3.457222,0.77611 -4.339167,0.88194 -0.917222,0.10583 -1.869722,0.45861 -2.2225,0.84667 -0.529167,0.56444 -0.987778,0.67027 -2.398889,0.52916 -0.987778,-0.0705 -1.975556,-0.3175 -2.2225,-0.52916 -0.246945,-0.21167 -1.199445,-0.42334 -2.151945,-0.52917 -1.058333,-0.0706 -1.799167,-0.3175 -2.010833,-0.70556 -0.176389,-0.3175 -0.529167,-0.56444 -0.811389,-0.56444 -0.246945,0 -0.776111,-0.38806 -1.164167,-0.88194 -0.388056,-0.45862 -1.375833,-1.09362 -2.2225,-1.37584 -1.728611,-0.59972 -2.081389,-0.38805 -2.081389,1.30528 0,0.59972 -0.246945,1.05833 -0.599722,1.19944 -0.352778,0.14112 -0.705556,0.35278 -0.811389,0.49389 -0.352778,0.49389 -4.409723,2.01084 -4.515556,1.69334 -0.07056,-0.17639 -0.388056,-0.3175 -0.740834,-0.3175 -0.3175,0 -0.776111,-0.17639 -1.023055,-0.42334 -0.3175,-0.3175 -0.423334,-0.3175 -0.423334,0 0,0.49389 -1.164166,0.56445 -2.046111,0.10584 -3.8100001,-2.04611 -6.1383336,-2.39889 -7.831667,-1.16417 -0.9877778,0.74083 -1.3758334,0.81139 -5.04472254,0.70556 -2.15194456,-0.0706 -4.97416696,0.0705 -6.20888926,0.28222 -1.4816668,0.28222 -2.575278,0.3175 -3.1397224,0.10583 -0.493889,-0.17639 -1.1994448,-0.21167 -1.6227778,-0.10583 -2.151945,0.70555 -10.33639,0.88194 -10.865556,0.21166 -0.211667,-0.21166 -0.670278,-0.42333 -1.023056,-0.42333 -1.199445,0 -3.033889,-1.23472 -4.056945,-2.71639 -1.023055,-1.51694 -1.658055,-2.01083 -2.046111,-1.62278 z"
       id="path69"
       style="stroke-width:0.0352778" />
  </g>
</svg>
